# xmcd CD database file
# Generated: Die Apr 8 21:54:09 2003 by KSCD
# 
# Track frame offsets:
#       150
#       17545
#       40633
#       61728
#       83475
#       100218
#       121993
#       143540
#       160443
#       178283
#       196870
#       217435
#       235230
#       251030
#       265858
#       292678
#       310750
#
# Disc length: 4405 seconds
#
# Revision: 8
# Processed by: cddbd v1.4PL0 Copyright (c) Steve Scherf et al.
# Submitted via: Kscd 1.3.3
#
DISCID=e5113311
DTITLE=Marla Glen - The Best Of
DYEAR=1900
DGENRE=Blues
TTITLE0=The Cost Of Freedom
TTITLE1=Believer
TTITLE2=Personal
TTITLE3=Travel
TTITLE4=You Hurt Me
TTITLE5=Also Love You
TTITLE6=Love and Respect
TTITLE7=What About Our Kids
TTITLE8=Not Really Easy
TTITLE9=Promises
TTITLE10=Hot Love
TTITLE11=Our World
TTITLE12=Movin'
TTITLE13=It's A Man's Man's Man's World
TTITLE14=Ain't That A Shame (Acoustic Version)
TTITLE15=Not Really Easy (Acoustic Version)
TTITLE16=Center Of A Star (Acoustic Version)
EXTD=ID3G:   0
EXTT0=
EXTT1=
EXTT2=
EXTT3=
EXTT4=
EXTT5=
EXTT6=
EXTT7=
EXTT8=
EXTT9=
EXTT10=
EXTT11=
EXTT12=
EXTT13=
EXTT14=
EXTT15=
EXTT16=
PLAYORDER=
